<svg viewBox="0 0 26 17" version="1.1" xmlns="http://www.w3.org/2000/svg" xmlns:xlink="http://www.w3.org/1999/xlink">
    <title>email icon</title>
    <g id="Page-1" stroke="none" stroke-width="1" fill="none" fill-rule="evenodd">
        <g id="Home-Alt" transform="translate(-132.000000, -53.000000)" stroke="currentColor" stroke-width="1.5">
            <g id="email-icon" transform="translate(133.000000, 54.000000)">
                <path d="M0.00808138219,1.78508492 L0.00808138219,13.7617347 C0.301764345,14.5635932 0.702498181,14.9645224 1.21028289,14.9645224 C1.7180676,14.9645224 8.70737874,14.9645224 22.1782163,14.9645224 C23.3927388,15.1279051 24,14.7269759 24,13.7617347 C24,12.7964935 24,8.70076076 24,1.47453653 C23.9326387,0.491512175 23.4938312,0 22.6835772,0 C21.8733233,0 14.7155585,0 1.21028289,0 C0.40342763,0.0630746172 -1.41930911e-12,0.558274776 -1.41930911e-12,1.48560048 C-1.41930911e-12,2.41292618 0.00269379406,2.51275432 0.00808138219,1.78508492 Z" id="Combined-Shape" stroke-linecap="square" stroke-linejoin="round"></path>
                <path d="M0.380588125,1 C0.227419814,1 3.45421364,3.33333333 10.0609696,8 C10.5938138,8 10.9068239,8 11,8" id="Path-6" stroke-linecap="round"></path>
                <path d="M23.6635742,1 L13.9039489,8 C13.5154843,8 13.1472191,8 12.7991533,8 C12.4510876,8 11.8513698,8 11,8" id="Path-7" stroke-linecap="round"></path>
            </g>
        </g>
    </g>
</svg>