<svg viewBox="0 0 19 19" version="1.1" xmlns="http://www.w3.org/2000/svg" xmlns:xlink="http://www.w3.org/1999/xlink">
    <title>facebook</title>
    <g id="Page-1" stroke="none" stroke-width="1" fill="none" fill-rule="evenodd">
        <g id="Home-Alt" transform="translate(-40.000000, -52.000000)" fill="currentColor" fill-rule="nonzero">
            <g id="facebook-official" transform="translate(40.000000, 52.000000)">
                <path d="M17.9485677,0 C18.5299479,0 19,0.470052083 19,1.05143229 L19,17.9485677 C19,18.5299479 18.5299479,19 17.9485677,19 L13.1119792,19 L13.1119792,11.639974 L15.5735677,11.639974 L15.9446615,8.77018229 L13.1119792,8.77018229 L13.1119792,6.93945312 C13.1119792,6.11067708 13.3346354,5.55403646 14.5345052,5.55403646 L16.0436198,5.54166667 L16.0436198,2.98111979 C15.7838542,2.94401042 14.8808594,2.86979167 13.8417969,2.86979167 C11.6523438,2.86979167 10.1432292,4.20572917 10.1432292,6.65494792 L10.1432292,8.77018229 L7.66927083,8.77018229 L7.66927083,11.639974 L10.1432292,11.639974 L10.1432292,19 L1.05143229,19 C0.470052083,19 0,18.5299479 0,17.9485677 L0,1.05143229 C0,0.470052083 0.470052083,0 1.05143229,0 L17.9485677,0 Z" id="Path"></path>
            </g>
        </g>
    </g>
</svg>