<svg width="19" height="19" xmlns="http://www.w3.org/2000/svg">
    <path d="M12.666 9.5A3.173 3.173 0 009.5 6.334 3.173 3.173 0 006.334 9.5 3.173 3.173 0 009.5 12.666 3.173 3.173 0 0012.666 9.5zm1.707 0A4.867 4.867 0 019.5 14.373 4.867 4.867 0 014.627 9.5 4.867 4.867 0 019.5 4.627 4.867 4.867 0 0114.373 9.5zm1.336-5.071c0 .63-.507 1.138-1.138 1.138-.63 0-1.138-.507-1.138-1.138 0-.631.507-1.138 1.138-1.138.631 0 1.138.507 1.138 1.138zM9.5 1.708c-1.385 0-4.354-.112-5.603.383a3.037 3.037 0 00-1.089.717 3.037 3.037 0 00-.717 1.089c-.495 1.25-.383 4.218-.383 5.603 0 1.385-.112 4.354.383 5.603.173.433.384.755.717 1.089.334.333.656.544 1.089.717 1.25.495 4.218.383 5.603.383 1.385 0 4.354.112 5.603-.383a3.037 3.037 0 001.089-.717c.333-.334.544-.656.717-1.089.495-1.25.383-4.218.383-5.603 0-1.385.112-4.354-.383-5.603a3.037 3.037 0 00-.717-1.089 3.037 3.037 0 00-1.089-.717c-1.25-.495-4.218-.383-5.603-.383zM19 9.5c0 1.311.012 2.61-.063 3.92-.074 1.522-.42 2.87-1.533 3.984-1.114 1.113-2.462 1.46-3.983 1.533-1.311.075-2.61.062-3.921.062s-2.61.013-3.92-.062c-1.522-.074-2.87-.42-3.984-1.533C.483 16.29.136 14.942.063 13.42-.012 12.11 0 10.81 0 9.5s-.013-2.61.062-3.92c.074-1.522.42-2.87 1.533-3.984C2.71.483 4.058.136 5.58.063 6.89-.012 8.19 0 9.5 0s2.61-.013 3.92.062c1.522.074 2.87.42 3.984 1.533 1.113 1.114 1.46 2.462 1.533 3.983C19.012 6.89 19 8.19 19 9.5z" fill="#000" fill-rule="nonzero"/>
</svg>