<svg viewBox="0 0 19 19" version="1.1" xmlns="http://www.w3.org/2000/svg" xmlns:xlink="http://www.w3.org/1999/xlink">
    <title>instagram</title>
    <g id="Page-1" stroke="none" stroke-width="1" fill="none" fill-rule="evenodd">
        <g id="Home-Alt" transform="translate(-74.000000, -52.000000)" fill="currentColor" fill-rule="nonzero">
            <g id="instagram" transform="translate(74.000000, 52.000000)">
                <path d="M12.666409,9.5 C12.666409,7.7560013 11.2439987,6.33359102 9.5,6.33359102 C7.7560013,6.33359102 6.33359102,7.7560013 6.33359102,9.5 C6.33359102,11.2439987 7.7560013,12.666409 9.5,12.666409 C11.2439987,12.666409 12.666409,11.2439987 12.666409,9.5 Z M14.3733013,9.5 C14.3733013,12.1963952 12.1963952,14.3733013 9.5,14.3733013 C6.80360485,14.3733013 4.62669867,12.1963952 4.62669867,9.5 C4.62669867,6.80360485 6.80360485,4.62669867 9.5,4.62669867 C12.1963952,4.62669867 14.3733013,6.80360485 14.3733013,9.5 Z M15.7091301,4.42879811 C15.7091301,5.05960615 15.2020099,5.56672634 14.5712019,5.56672634 C13.9403938,5.56672634 13.4332737,5.05960615 13.4332737,4.42879811 C13.4332737,3.79799007 13.9403938,3.29086988 14.5712019,3.29086988 C15.2020099,3.29086988 15.7091301,3.79799007 15.7091301,4.42879811 Z M9.5,1.70766539 C8.11469607,1.70766539 5.14618765,1.59634633 3.89694035,2.09109773 C3.46403287,2.26426072 3.14244446,2.47453007 2.80848727,2.80848727 C2.47453007,3.14244446 2.26426072,3.46403287 2.09109773,3.89694035 C1.59634633,5.14618765 1.70766539,8.11469607 1.70766539,9.5 C1.70766539,10.8853039 1.59634633,13.8538124 2.09109773,15.1030596 C2.26426072,15.5359671 2.47453007,15.8575555 2.80848727,16.1915127 C3.14244446,16.5254699 3.46403287,16.7357393 3.89694035,16.9089023 C5.14618765,17.4036537 8.11469607,17.2923346 9.5,17.2923346 C10.8853039,17.2923346 13.8538124,17.4036537 15.1030596,16.9089023 C15.5359671,16.7357393 15.8575555,16.5254699 16.1915127,16.1915127 C16.5254699,15.8575555 16.7357393,15.5359671 16.9089023,15.1030596 C17.4036537,13.8538124 17.2923346,10.8853039 17.2923346,9.5 C17.2923346,8.11469607 17.4036537,5.14618765 16.9089023,3.89694035 C16.7357393,3.46403287 16.5254699,3.14244446 16.1915127,2.80848727 C15.8575555,2.47453007 15.5359671,2.26426072 15.1030596,2.09109773 C13.8538124,1.59634633 10.8853039,1.70766539 9.5,1.70766539 Z M18.999227,9.5 C18.999227,10.8110912 19.0115957,12.1098137 18.937383,13.4209049 C18.8631703,14.9422654 18.5168443,16.290463 17.4036537,17.4036537 C16.290463,18.5168443 14.9422654,18.8631703 13.4209049,18.937383 C12.1098137,19.0115957 10.8110912,18.999227 9.5,18.999227 C8.18890878,18.999227 6.89018635,19.0115957 5.57909513,18.937383 C4.05773456,18.8631703 2.70953698,18.5168443 1.59634633,17.4036537 C0.483155668,16.290463 0.136829685,14.9422654 0.0626169745,13.4209049 C-0.011595736,12.1098137 0.000773049068,10.8110912 0.000773049068,9.5 C0.000773049068,8.18890878 -0.011595736,6.89018635 0.0626169745,5.57909513 C0.136829685,4.05773456 0.483155668,2.70953698 1.59634633,1.59634633 C2.70953698,0.483155668 4.05773456,0.136829685 5.57909513,0.0626169745 C6.89018635,-0.011595736 8.18890878,0.000773049068 9.5,0.000773049068 C10.8110912,0.000773049068 12.1098137,-0.011595736 13.4209049,0.0626169745 C14.9422654,0.136829685 16.290463,0.483155668 17.4036537,1.59634633 C18.5168443,2.70953698 18.8631703,4.05773456 18.937383,5.57909513 C19.0115957,6.89018635 18.999227,8.18890878 18.999227,9.5 Z" id="Shape"></path>
            </g>
        </g>
    </g>
</svg>